<svg id="Logos" xmlns="http://www.w3.org/2000/svg" viewBox="0 0 1440 340"><path d="M546.81,79.63V248.32a7.1,7.1,0,0,1-7.22,7L501.86,255c0-65.89,0-66,0-66a7.1,7.1,0,0,0-7.23-7H434.33a7.1,7.1,0,0,0-7.23,7l-.21,66c-35.95,0-37.55.33-37.55.33a7.11,7.11,0,0,1-7.23-7V79.63a7.1,7.1,0,0,1,7.23-7l37.55.22c0,63.71.21,65.09.21,65.09a7.09,7.09,0,0,0,7.23,7H494.6a7.1,7.1,0,0,0,7.23-7l-.11-65.18c42.12,0,37.87-.13,37.87-.13A7.09,7.09,0,0,1,546.81,79.63Z"/><path d="M593.19,93.81h27a6.29,6.29,0,0,1,6.4,6.17V249.37a6.29,6.29,0,0,1-6.4,6.16h-27a6.28,6.28,0,0,1-6.39-6.16V100A6.28,6.28,0,0,1,593.19,93.81Z"/><path d="M816,102,761.81,253.3a6.38,6.38,0,0,1-6,4.15H714.41a6.39,6.39,0,0,1-6-4.14L653.93,102a6.2,6.2,0,0,1,6-8.19h27.36a6.37,6.37,0,0,1,6.06,4.2L729,200.3c2,5.61,10.19,5.61,12.14,0L776.56,98a6.4,6.4,0,0,1,6.07-4.21H810A6.21,6.21,0,0,1,816,102Z"/><path d="M955.31,231v18.39a6.29,6.29,0,0,1-6.4,6.16h-99.2a6.29,6.29,0,0,1-6.4-6.16V100a6.29,6.29,0,0,1,6.4-6.17H947.8a6.28,6.28,0,0,1,6.4,6.17v18.38a6.28,6.28,0,0,1-6.4,6.17H889.55a6.29,6.29,0,0,0-6.4,6.17s-.07-.09-.07,28.23c0,0-.81.11,59.67.11l0,30.21c-62.45,0-59.86.22-59.86.22,0,29.68.21,29.17.21,29.17a6.29,6.29,0,0,0,6.4,6.17h59.36A6.29,6.29,0,0,1,955.31,231Z"/><path d="M1196,79.63V248.32a7.1,7.1,0,0,1-7.22,7h-30.54a7.1,7.1,0,0,1-7.22-7l-.43-107.17c0-6.83-40.41,50.66-40.41,50.66a7.29,7.29,0,0,1-5.94,3h-14.88a7.3,7.3,0,0,1-6-3s-40-57.87-40-51l.21,107.56a7.11,7.11,0,0,1-7.23,7h-30.53a7.11,7.11,0,0,1-7.23-7V79.63a7.1,7.1,0,0,1,7.23-7h40.89a7.3,7.3,0,0,1,6,3.09l38.58,55.69a7.38,7.38,0,0,0,12,0l38.58-55.69a7.31,7.31,0,0,1,6-3.09h40.9A7.09,7.09,0,0,1,1196,79.63Z"/><path d="M1411.29,206.86a80.25,80.25,0,0,1-19.06,27.66,6.74,6.74,0,0,0-.33,9.53l24.95,26.33c-45.57,0-48.09.33-48.09.33a7.36,7.36,0,0,1-5.49-2.44l-8.18-9.22a7.5,7.5,0,0,0-7.24-2.23,120.43,120.43,0,0,1-25.66,2.56q-31.49,0-53.48-12.4t-33-34q-11-21.57-11-48.79,0-26.75,11-48.19t33-34.09q22-12.64,53.48-12.65,31,0,53,12.65t33.11,34.21q11.13,21.57,11.13,48.07Q1419.42,187.59,1411.29,206.86ZM1284,206.74q13.24,16,38.23,16h.51L1311,209.7c-4-4.51-.71-11.51,5.47-11.51h30.91a7.32,7.32,0,0,1,5.46,2.4h0c3.24,3.6,8.12,6.67,10.56,2.52,2-3.46,4.89-10.8,6.27-14.92a77.44,77.44,0,0,0,3.75-24.7q0-16.62-6-29.63a47.33,47.33,0,0,0-17.62-20.48q-11.62-7.45-27.62-7.47-24.74,0-38.11,16.15t-13.37,42.16Q1270.71,190.72,1284,206.74Z"/><circle cx="170.68" cy="169.51" r="138.48" style="fill:#ffc000"/><path d="M170.58,320c-82.7,0-150-67.29-150-150s67.3-150,150-150,150,67.29,150,150S253.29,320,170.58,320Zm0-287.32C94.86,32.68,33.26,94.28,33.26,170s61.6,137.32,137.32,137.32S307.9,245.72,307.9,170,246.3,32.68,170.58,32.68Z"/><path d="M193.15,124.69a22.61,22.61,0,0,1-12.73-24A22.63,22.63,0,0,1,193.15,124.69Z" style="fill:#fff;fill-rule:evenodd"/><path d="M171.12,252c6.09-11,9.26-14.73,13.31-19H157.82C161.89,237.25,165,241,171.12,252Z"/><path d="M240.21,159.62a3.73,3.73,0,0,0-.18,5.25l.51.57C262,147.13,274.88,133,268.45,121.8c-7.08-9.86-36.91-5.18-73.48,11.27a26.71,26.71,0,0,0,2.76-11.88,26,26,0,0,0-.38-4.49,26.42,26.42,0,0,0-14.79-19.53l.12-.29h0l2.81-6.1A1.95,1.95,0,0,0,182,89.15l-3.06,6.61a26.85,26.85,0,0,0-15.58,0l-3.05-6.61a1.95,1.95,0,0,0-3.54,1.63l2.73,5.9.22.47a26.75,26.75,0,0,0-7.41,5.22,26.84,26.84,0,0,0-5.16,30.38c-9.46-4.23-62-26-72.55-11.15C65,135.09,94.43,158.71,102.3,165.44l.51-.57a3.77,3.77,0,0,0-.16-5.25,119,119,0,0,1-14.16-15.5c-5.56-7.69-5.7-12.23-3-14.75,8.36-7.85,39.38,2.54,49,6.21A274.75,274.75,0,0,1,164,149c-49.17,28.5-82.57,62.56-74.68,76.21,4.94,8.57,25.51,7.45,51.94-1.87l-1-1.57a3.69,3.69,0,0,0-4.29-1.64c-18.33,5.55-29.74,8.19-33.69,2.29-5.51-9.54,22.44-42.41,65.87-67.48l3.26-1.87c1.1.61,2.19,1.24,3.27,1.87,43.44,25.07,71.39,57.94,65.88,67.48-3.95,5.9-15.36,3.26-33.69-2.29a3.71,3.71,0,0,0-4.3,1.64l-.95,1.57c26.42,9.32,47,10.44,51.94,1.87C261.43,211.6,228,177.54,178.87,149c34.61-18.25,65.8-26.36,77.23-20.54C266.37,133.72,248.35,151.91,240.21,159.62Zm-91.3-34.95a22.58,22.58,0,0,1,12.73-24A22.63,22.63,0,0,1,148.91,124.67Zm44.24,0a22.6,22.6,0,0,1-12.73-24A22.61,22.61,0,0,1,193.15,124.67Z"/><path d="M140.59,208.24a40.31,40.31,0,0,0,6.93,13.47h47.2a40,40,0,0,0,6.94-13.47Z"/><path d="M201.11,180.74a349.4,349.4,0,0,0-30-19.59,347.17,347.17,0,0,0-30,19.59,45,45,0,0,0-2.4,16.21h64.73A45.66,45.66,0,0,0,201.11,180.74Z"/><path d="M148.91,124.67a22.58,22.58,0,0,1,12.73-24A22.63,22.63,0,0,1,148.91,124.67Z" style="fill:#fff;fill-rule:evenodd"/><path d="M103.6,163a3.37,3.37,0,0,0-1-3.62c-8.15-7.69-26.16-25.9-15.89-31.12C98.1,122.48,129.36,130.79,164,149a308.65,308.65,0,0,0-42.05,28.65C107.92,167.45,105.43,165.17,103.6,163Z" style="fill:#fff;fill-rule:evenodd"/><path d="M240.46,222.66c-3.94,5.9-15.36,3.25-33.69-2.3a3.58,3.58,0,0,0-2.42.08c5.6-8.12,6.82-23.07,4.87-34a.39.39,0,0,1,0-.16.15.15,0,0,1,0-.08c-.59-4.27-1.53-7.65-2.61-9.15C230.92,196.66,244.49,215.78,240.46,222.66Z" style="fill:#fff;fill-rule:evenodd"/><path d="M221.19,177.91c-12.32-10.36-24.86-18.74-42.32-28.85,34.61-18.25,65.8-26.36,77.23-20.55,10.27,5.23-7.75,23.42-15.89,31.13-1.44,1.36-1.09,2-1.05,3.62C237.34,165.38,235.18,167.67,221.19,177.91Z" style="fill:#fff;fill-rule:evenodd"/><path d="M136.21,176.81c-1.08,1.51-2,4.88-2.6,9.16a.15.15,0,0,1,0,.08.39.39,0,0,1,0,.16c-2,10.9-.73,25.86,4.86,34a3.7,3.7,0,0,0-2.42-.08c-18.33,5.56-29.74,8.2-33.69,2.3C98.29,215.52,111.86,196.4,136.21,176.81Z" style="fill:#fff;fill-rule:evenodd"/></svg>